<?xml version="1.0" standalone="no"?>
<!DOCTYPE svg PUBLIC "-//W3C//DTD SVG 20010904//EN"
 "http://www.w3.org/TR/2001/REC-SVG-20010904/DTD/svg10.dtd">
<svg version="1.0" xmlns="http://www.w3.org/2000/svg"
 width="1097.000000pt" height="1280.000000pt" viewBox="0 0 1097.000000 1280.000000"
 preserveAspectRatio="xMidYMid meet">
<metadata>
Created by potrace 1.15, written by Peter Selinger 2001-2017
</metadata>
<g transform="translate(0.000000,1280.000000) scale(0.100000,-0.100000)"
fill="#000000" stroke="none">
<path d="M1323 12790 c-47 -10 -89 -30 -148 -70 -22 -15 -58 -33 -80 -40 -133
-42 -122 -34 -256 -188 -137 -157 -160 -189 -232 -326 -80 -152 -95 -189 -133
-336 -25 -98 -31 -200 -15 -243 9 -24 78 -67 106 -67 8 0 15 9 15 21 0 11 5
29 11 40 8 16 14 18 24 9 10 -8 13 -40 12 -118 -1 -119 20 -193 71 -254 l27
-32 -3 -172 c-4 -183 3 -219 47 -263 17 -17 33 -21 85 -21 53 0 67 -4 89 -24
32 -29 47 -81 48 -166 0 -36 4 -92 8 -124 7 -56 11 -62 68 -116 112 -106 192
-124 301 -70 44 23 71 45 96 80 43 60 134 133 184 148 29 9 55 8 134 -8 148
-31 341 -89 362 -109 18 -18 16 -21 -49 -91 -73 -80 -121 -166 -156 -280 -29
-94 -30 -180 -5 -495 l18 -230 -61 -185 c-106 -317 -112 -344 -118 -528 -4
-112 -9 -165 -17 -168 -11 -4 -62 18 -326 143 -89 42 -104 54 -230 182 -199
201 -311 343 -336 429 -8 25 -14 70 -14 101 0 105 -61 273 -138 376 -40 55
-162 185 -173 185 -5 0 -34 16 -66 36 -43 28 -68 37 -107 39 -28 1 -64 8 -79
14 -80 32 -138 -4 -188 -114 -50 -111 -89 -348 -92 -558 -2 -131 -2 -134 26
-174 96 -139 216 -247 343 -308 72 -35 106 -60 163 -117 82 -82 192 -225 247
-319 44 -76 109 -162 154 -204 18 -16 76 -82 131 -145 143 -168 227 -237 419
-345 47 -27 98 -58 115 -69 76 -53 226 -176 280 -230 55 -55 64 -60 112 -64
103 -9 117 -1 252 131 226 222 258 274 411 657 107 267 157 406 176 494 18 76
48 143 88 190 l24 28 108 -74 c60 -41 147 -96 194 -123 128 -73 180 -114 365
-295 94 -91 207 -191 250 -222 44 -30 195 -113 335 -183 336 -168 394 -205
444 -285 44 -69 43 -78 -32 -147 -37 -35 -72 -63 -79 -63 -7 0 -26 -17 -43
-38 -16 -21 -54 -54 -84 -73 -30 -18 -66 -53 -81 -76 -35 -54 -367 -343 -395
-343 -12 0 -180 -141 -180 -151 0 -4 -39 -50 -88 -101 -202 -214 -359 -404
-397 -481 -15 -28 -83 -136 -151 -239 -131 -196 -174 -278 -193 -366 -6 -30
-11 -149 -11 -274 l0 -220 71 -67 c40 -36 97 -85 128 -109 99 -76 365 -195
484 -217 20 -4 40 -11 43 -16 3 -5 23 -9 44 -9 22 0 72 -4 112 -10 40 -5 129
-17 197 -25 68 -8 149 -22 180 -30 191 -49 626 -83 1431 -110 272 -9 364 -25
495 -85 74 -34 89 -51 115 -125 25 -74 45 -94 143 -152 81 -48 127 -103 127
-152 0 -58 77 -150 171 -206 63 -36 84 -70 137 -213 l35 -97 -1 -210 c-1 -115
-4 -226 -7 -246 l-6 -36 56 -21 c64 -25 105 -27 173 -10 63 15 112 50 208 149
119 123 188 236 200 323 10 67 16 73 55 45 46 -32 251 -221 549 -504 329 -313
506 -473 660 -597 69 -56 148 -122 175 -148 28 -25 95 -80 150 -121 121 -91
325 -302 395 -406 45 -68 51 -81 48 -122 l-3 -46 -60 -6 c-33 -3 -70 -11 -82
-17 -29 -16 -53 -51 -46 -69 3 -8 -7 -27 -22 -43 -27 -28 -27 -28 -7 -39 12
-6 28 -11 37 -11 29 0 28 -30 -4 -81 -60 -96 -73 -156 -69 -311 2 -111 6 -140
20 -154 15 -15 17 -15 26 3 6 11 16 75 22 144 11 134 33 220 62 246 26 23 38
7 54 -66 8 -42 9 -83 3 -140 -22 -195 -98 -287 -311 -376 -47 -20 -103 -51
-124 -69 -36 -31 -38 -36 -38 -92 0 -91 18 -165 45 -187 35 -28 128 -72 179
-85 97 -24 234 -35 440 -36 190 0 226 2 314 23 154 35 218 83 367 269 56 70
161 192 233 272 73 80 161 181 196 225 138 174 248 370 257 459 5 49 3 54 -41
113 -44 58 -170 179 -281 270 -80 65 -264 183 -340 218 -118 54 -332 248 -495
450 -35 44 -125 151 -200 238 -74 88 -148 180 -165 206 -16 25 -58 83 -91 128
-34 45 -70 104 -79 130 -69 193 -217 425 -355 557 -116 110 -212 184 -530 410
-309 219 -354 261 -398 371 -51 131 -110 348 -222 825 -83 348 -116 471 -186
675 -104 307 -121 367 -135 475 -6 52 -22 124 -36 160 -60 155 -71 212 -83
396 -18 297 -58 589 -96 709 -28 84 -105 225 -165 299 -70 88 -145 154 -319
283 -74 55 -176 138 -227 184 -358 327 -443 409 -494 478 -31 42 -85 101 -119
131 -170 147 -606 573 -898 877 -481 500 -561 588 -615 680 -54 92 -110 221
-101 234 3 5 51 31 107 57 56 27 184 99 285 161 216 134 230 137 323 91 65
-33 608 -394 689 -459 108 -86 263 -228 327 -299 176 -195 262 -303 273 -339
6 -21 15 -112 20 -203 11 -199 18 -230 76 -340 46 -87 175 -275 219 -319 l24
-24 70 62 c97 86 350 349 386 401 40 58 39 120 -5 260 -41 135 -64 178 -143
275 -71 89 -103 119 -228 216 -100 77 -173 170 -280 351 -327 556 -454 705
-835 985 -76 56 -178 140 -226 187 -48 47 -102 92 -119 101 -35 19 -95 17
-299 -9 -69 -8 -215 -25 -325 -36 -482 -52 -687 -112 -934 -273 -54 -36 -113
-69 -132 -75 -19 -6 -95 -13 -169 -16 -221 -8 -364 -46 -394 -104 -26 -51
-142 -94 -256 -94 -142 -1 -218 69 -250 232 -7 36 -31 103 -52 150 -28 58 -51
133 -74 238 -62 282 -196 565 -335 707 -27 28 -49 58 -49 67 0 13 -13 17 -57
21 -32 2 -77 12 -101 21 -98 38 -414 67 -509 46z m4158 -7152 c46 -50 179
-241 243 -350 65 -109 71 -145 22 -140 -40 4 -206 80 -317 144 -52 30 -134 76
-184 102 -123 64 -143 80 -126 100 26 32 285 172 324 175 4 1 22 -14 38 -31z"/>
</g>
</svg>
